<svg width="24" height="24" viewBox="0 0 24 24" fill="none" xmlns="http://www.w3.org/2000/svg">
<path d="M21.953 8.46301C21.7863 6.80355 21.0407 5.25575 19.847 4.09101L19.739 4.00301C18.8791 3.16709 17.8209 2.56337 16.6637 2.24853C15.5065 1.93368 14.2883 1.91802 13.1234 2.20302C11.9585 2.48802 10.8851 3.06434 10.0039 3.87788C9.12282 4.69142 8.46286 5.7155 8.086 6.85401C7.58132 8.3792 7.60882 10.0305 8.164 11.538L2.214 17.511C2.14608 17.5789 2.09222 17.6595 2.05549 17.7482C2.01877 17.8369 1.99991 17.932 2 18.028V21.268C1.99879 21.3644 2.01687 21.46 2.05316 21.5493C2.08946 21.6386 2.14324 21.7197 2.21135 21.7879C2.27946 21.8561 2.36052 21.91 2.44976 21.9465C2.539 21.9829 2.63462 22.0011 2.731 22H5.98C6.08572 22.0018 6.19053 21.9802 6.28699 21.9369C6.38345 21.8936 6.46918 21.8296 6.53811 21.7494C6.60703 21.6692 6.65744 21.5749 6.68577 21.473C6.71409 21.3711 6.71963 21.2643 6.702 21.16L6.555 20.185L7.462 20.331C7.57711 20.3509 7.69528 20.3436 7.80709 20.3098C7.9189 20.2759 8.02125 20.2164 8.106 20.136L9.735 18.506C9.81754 18.4246 9.87919 18.3244 9.91471 18.214C9.95023 18.1036 9.95856 17.9863 9.939 17.872L9.783 16.896L10.759 17.042C10.8734 17.0606 10.9905 17.0517 11.1007 17.0161C11.211 16.9804 11.3112 16.919 11.393 16.837L12.475 15.744C13.6015 16.1622 14.816 16.286 16.0037 16.1037C17.1914 15.9214 18.3129 15.4389 19.262 14.702C20.2116 13.965 20.9579 12.9984 21.4306 11.8932C21.9033 10.7881 22.0869 9.58073 21.964 8.38501L21.953 8.46301ZM17.428 10.835C17.0112 11.262 16.4739 11.5516 15.888 11.665C15.695 11.7035 15.4988 11.7229 15.302 11.723C14.9079 11.7221 14.5176 11.6461 14.152 11.499C13.6029 11.2697 13.1343 10.8823 12.806 10.386C12.4711 9.89416 12.2939 9.31201 12.298 8.71701C12.298 8.12348 12.4741 7.5433 12.8039 7.04986C13.1338 6.55643 13.6026 6.17193 14.151 5.94501C14.7012 5.72072 15.3052 5.66314 15.8878 5.77942C16.4704 5.8957 17.0061 6.18072 17.428 6.59901C17.9845 7.16351 18.2964 7.92434 18.2964 8.71701C18.2964 9.50967 17.9845 10.2705 17.428 10.835Z" fill="black"/>
</svg>
