<svg width="23" height="16" viewBox="0 0 23 16" fill="none" xmlns="http://www.w3.org/2000/svg">
<path d="M22.7204 8.04952C22.6876 7.97546 21.8936 6.2139 20.1282 4.44858C17.7761 2.0964 14.8051 0.853271 11.5351 0.853271C8.26512 0.853271 5.29418 2.0964 2.94199 4.44858C1.17668 6.2139 0.378867 7.97827 0.349804 8.04952C0.30716 8.14544 0.285126 8.24924 0.285126 8.35421C0.285126 8.45918 0.30716 8.56298 0.349804 8.6589C0.382617 8.73296 1.17668 10.4936 2.94199 12.2589C5.29418 14.6101 8.26512 15.8533 11.5351 15.8533C14.8051 15.8533 17.7761 14.6101 20.1282 12.2589C21.8936 10.4936 22.6876 8.73296 22.7204 8.6589C22.7631 8.56298 22.7851 8.45918 22.7851 8.35421C22.7851 8.24924 22.7631 8.14544 22.7204 8.04952ZM11.5351 14.3533C8.64949 14.3533 6.12855 13.3042 4.04168 11.2361C3.18541 10.3845 2.45692 9.41354 1.87887 8.35327C2.45676 7.2929 3.18527 6.32187 4.04168 5.47046C6.12855 3.40233 8.64949 2.35327 11.5351 2.35327C14.4207 2.35327 16.9417 3.40233 19.0286 5.47046C19.8865 6.32167 20.6166 7.29269 21.1961 8.35327C20.5201 9.61515 17.5754 14.3533 11.5351 14.3533ZM11.5351 3.85327C10.6451 3.85327 9.77507 4.11719 9.03505 4.61166C8.29503 5.10612 7.71825 5.80893 7.37766 6.6312C7.03706 7.45346 6.94795 8.35826 7.12158 9.23118C7.29522 10.1041 7.7238 10.9059 8.35314 11.5353C8.98247 12.1646 9.7843 12.5932 10.6572 12.7668C11.5301 12.9404 12.4349 12.8513 13.2572 12.5107C14.0795 12.1701 14.7823 11.5934 15.2767 10.8533C15.7712 10.1133 16.0351 9.24329 16.0351 8.35327C16.0339 7.16018 15.5594 6.01631 14.7157 5.17266C13.8721 4.32902 12.7282 3.85451 11.5351 3.85327ZM11.5351 11.3533C10.9418 11.3533 10.3618 11.1773 9.86841 10.8477C9.37506 10.518 8.99054 10.0495 8.76348 9.50132C8.53642 8.95314 8.47701 8.34994 8.59276 7.768C8.70852 7.18606 8.99424 6.65151 9.4138 6.23195C9.83335 5.81239 10.3679 5.52667 10.9498 5.41092C11.5318 5.29516 12.135 5.35457 12.6832 5.58163C13.2313 5.8087 13.6999 6.19321 14.0295 6.68656C14.3592 7.17991 14.5351 7.75993 14.5351 8.35327C14.5351 9.14892 14.219 9.91198 13.6564 10.4746C13.0938 11.0372 12.3308 11.3533 11.5351 11.3533Z" fill="black"/>
</svg>
